<svg width="47" height="43" viewBox="0 0 47 43" fill="none" xmlns="http://www.w3.org/2000/svg"><path fill-rule="evenodd" clip-rule="evenodd" d="M22.4937 42.4999L4.80174 11.8564L0.562829 18.9778C-0.18007 20.2259 -0.188055 21.7786 0.541971 23.0342L10.7025 40.5104C11.4186 41.7421 12.7358 42.4999 14.1605 42.4999H22.4937Z" fill="#C07823"></path><path d="M24.1423 0L41.6525 30.3287L45.7582 22.9726C46.4415 21.7484 46.434 20.2558 45.7384 19.0386L36.0109 2.01544C35.2987 0.769145 33.9734 0 32.5379 0H24.1423Z" fill="#F4A548"></path><path d="M14.1333 0H16.8165L38.0516 36.7803L36.0037 40.4495C35.2971 41.7155 33.9608 42.5 32.5109 42.5H29.0569L8.13336 6.25944L10.6961 1.95406C11.4173 0.742412 12.7232 0 14.1333 0Z" fill="#DD9034"></path></svg>